<svg xmlns="http://www.w3.org/2000/svg" viewBox="0 0 760 570" role="img"><defs><linearGradient id="a" x1="0" y1="0" x2="1" y2="1"><stop stop-color="#d9ecff"/><stop offset="1" stop-color="#8bb8ea"/></linearGradient><linearGradient id="b" x1="0" y1="0" x2="0" y2="1"><stop stop-color="#eee9ff"/><stop offset="1" stop-color="#a996e8"/></linearGradient></defs><rect width="760" height="570" rx="40" fill="#f7fbff"/><g stroke="#cad9e8" stroke-width="1"><path d="M65 480H695M380 55V520"/><path d="M100 520L650 100"/></g><circle cx="210" cy="175" r="92" fill="url(#a)" stroke="#1f4e8c" stroke-width="7"/><ellipse cx="210" cy="175" rx="92" ry="27" fill="none" stroke="#1f4e8c" stroke-width="4" stroke-dasharray="10 8"/><path d="M390 90 Q520 250 390 420" fill="none" stroke="#6d4fc2" stroke-width="9"/><line x1="585" y1="80" x2="585" y2="430" stroke="#b33a3a" stroke-width="5" stroke-dasharray="12 10"/><path d="M155 500 C260 440 300 330 380 280 C460 230 500 160 620 115" fill="none" stroke="#147d64" stroke-width="7"/><path d="M410 480 C480 430 480 345 410 300 C510 330 565 330 665 300 C595 345 595 430 665 480 C565 450 510 450 410 480Z" fill="url(#b)" opacity=".75" stroke="#6d4fc2" stroke-width="6"/><text x="95" y="305" fill="#17365f" font-family="system-ui" font-size="24" font-weight="700">curvas</text><text x="500" y="535" fill="#17365f" font-family="system-ui" font-size="24" font-weight="700">superficies</text><text x="605" y="78" fill="#8d3030" font-family="system-ui" font-size="18">plano de corte</text></svg>