<svg xmlns="http://www.w3.org/2000/svg" viewBox="0 0 760 520"><rect width="760" height="520" rx="30" fill="#f8fbff"/><g font-family="system-ui" text-anchor="middle"><g fill="#fff" stroke-width="4"><rect x="250" y="35" width="260" height="80" rx="18" stroke="#1f4e8c"/><rect x="40" y="205" width="220" height="80" rx="18" stroke="#147d64"/><rect x="500" y="205" width="220" height="80" rx="18" stroke="#6d4fc2"/><rect x="250" y="405" width="260" height="80" rx="18" stroke="#c66a18"/></g><g fill="#17365f" font-size="22" font-weight="750"><text x="380" y="70">Ecuación desarrollada</text><text x="380" y="97" font-size="16">agrupar y completar cuadrados</text><text x="150" y="240">Forma canónica</text><text x="150" y="266" font-size="16">leer signos y parámetros</text><text x="610" y="240">Elementos y trazas</text><text x="610" y="266" font-size="16">centro, ejes, cortes</text><text x="380" y="440">Representación y verificación</text><text x="380" y="467" font-size="16">puntos, gráficos y argumentos</text></g></g><g fill="none" stroke="#7f98b5" stroke-width="5" marker-end="url(#m)"><defs><marker id="m" markerWidth="10" markerHeight="10" refX="8" refY="3" orient="auto"><path d="M0 0L9 3L0 6Z" fill="#7f98b5"/></marker></defs><path d="M300 115L210 205"/><path d="M460 115L550 205"/><path d="M260 285L330 405"/><path d="M500 285L430 405"/><path d="M380 405C380 330 380 200 380 120" stroke-dasharray="9 8"/></g></svg>